<svg xmlns="http://www.w3.org/2000/svg" width="400" height="400" viewBox="0 0 400 400"><rect width="100%" height="100%" fill="#eee"/><path fill="#333" d="M101.49 189.07H87.37v9.41h11.92v4.73H87.37v12.96h-5.94v-31.81h20.06zm4.16 4.53h5.46v22.57h-5.46zm6.21-6.58q0 .7-.29 1.32t-.76 1.08-1.11.74q-.64.27-1.36.27-.71 0-1.34-.27-.62-.28-1.08-.74-.47-.46-.74-1.08-.28-.62-.28-1.32 0-.73.28-1.36.27-.64.74-1.1.46-.47 1.08-.74.63-.28 1.34-.28.72 0 1.36.28.64.27 1.11.74.47.46.76 1.1.29.63.29 1.36m4.86-3.54h5.43v32.69h-5.43zm18.39 33.04q-2.95 0-4.52-1.66t-1.57-4.59v-12.6h-2.31q-.44 0-.75-.29-.31-.28-.31-.86v-2.15l3.63-.6 1.14-6.16q.11-.44.42-.68t.79-.24h2.82v7.11h6.03v3.87h-6.03v12.23q0 1.06.52 1.65.51.59 1.42.59.5 0 .84-.12t.6-.25q.25-.13.45-.25t.39-.12q.25 0 .4.12t.33.36l1.63 2.64q-1.19.99-2.73 1.5-1.54.5-3.19.5m13.64-21.56.33 2.55q1.06-2.02 2.51-3.17 1.45-1.16 3.43-1.16 1.56 0 2.51.68l-.35 4.07q-.11.4-.32.56-.21.17-.57.17-.32 0-.97-.11t-1.27-.11q-.9 0-1.6.26-.71.27-1.27.76-.56.5-.99 1.2t-.8 1.61v13.9h-5.44V193.6h3.19q.84 0 1.17.3.33.29.44 1.06m21.6-1.71q2.51 0 4.57.81t3.52 2.31 2.25 3.65q.8 2.16.8 4.82 0 2.68-.8 4.84-.79 2.16-2.25 3.67-1.46 1.52-3.52 2.34-2.06.81-4.57.81-2.53 0-4.59-.81-2.07-.82-3.54-2.34-1.46-1.51-2.26-3.67-.81-2.16-.81-4.84 0-2.66.81-4.82.8-2.15 2.26-3.65 1.47-1.5 3.54-2.31 2.06-.81 4.59-.81m0 19.07q2.82 0 4.17-1.89 1.36-1.89 1.36-5.55 0-3.65-1.36-5.56-1.35-1.92-4.17-1.92-2.86 0-4.23 1.93-1.38 1.92-1.38 5.55t1.38 5.54q1.37 1.9 4.23 1.9m33.53-8.16H214l-3.87-10.58q-.29-.71-.59-1.68-.31-.96-.62-2.09-.29 1.13-.59 2.11-.31.97-.6 1.7zm8.08-19.8 12.49 31.81h-4.57q-.78 0-1.26-.38-.48-.39-.72-.96l-2.38-6.49h-13.18l-2.37 6.49q-.18.5-.69.92-.5.42-1.25.42h-4.62l12.52-31.81zm32.53 12.03-1.43 1.98q-.24.31-.47.49-.23.17-.67.17-.42 0-.81-.25-.4-.25-.95-.57t-1.31-.58q-.76-.25-1.88-.25-1.43 0-2.51.52t-1.79 1.48q-.72.97-1.07 2.35-.35 1.37-.35 3.11 0 1.8.38 3.21.39 1.41 1.12 2.37.72.95 1.76 1.45 1.03.49 2.33.49t2.1-.32q.8-.31 1.35-.7.55-.38.96-.7.4-.32.91-.32.66 0 .99.5l1.56 1.98q-.9 1.06-1.95 1.78-1.06.71-2.19 1.14-1.14.43-2.34.6-1.19.18-2.38.18-2.09 0-3.94-.78t-3.23-2.28q-1.39-1.49-2.19-3.66-.81-2.17-.81-4.94 0-2.49.72-4.61.71-2.12 2.1-3.67 1.38-1.55 3.43-2.43t4.71-.88q2.53 0 4.43.81t3.42 2.33m7.9 5.9h10.25q0-1.06-.29-1.99-.3-.94-.9-1.64-.59-.71-1.5-1.11-.92-.41-2.12-.41-2.36 0-3.71 1.34-1.36 1.34-1.73 3.81m13.86 3.28h-13.97q.13 1.73.62 3 .48 1.26 1.27 2.09.8.82 1.88 1.23 1.09.41 2.41.41t2.28-.31 1.67-.68q.72-.38 1.26-.68.53-.31 1.04-.31.68 0 1.01.5l1.56 1.98q-.9 1.06-2.02 1.78-1.12.71-2.34 1.14t-2.49.6q-1.26.18-2.45.18-2.36 0-4.38-.78t-3.52-2.31-2.35-3.78q-.86-2.26-.86-5.23 0-2.31.75-4.34.75-2.04 2.14-3.55 1.4-1.5 3.41-2.38 2.02-.88 4.55-.88 2.13 0 3.93.68 1.81.68 3.1 1.99 1.3 1.31 2.04 3.21t.74 4.35q0 1.23-.27 1.66-.26.43-1.01.43m5.52-11.97h5.46v22.57h-5.46zm6.21-6.58q0 .7-.29 1.32t-.76 1.08-1.11.74q-.64.27-1.36.27-.71 0-1.33-.27-.63-.28-1.09-.74t-.74-1.08-.28-1.32q0-.73.28-1.36.28-.64.74-1.1.46-.47 1.09-.74.62-.28 1.33-.28.72 0 1.36.28.64.27 1.11.74.47.46.76 1.1.29.63.29 1.36m12.32 29.5q-2.95 0-4.52-1.66-1.58-1.66-1.58-4.59v-12.6h-2.31q-.44 0-.75-.29-.3-.28-.3-.86v-2.15l3.63-.6 1.14-6.16q.11-.44.42-.68t.79-.24h2.82v7.11h6.02v3.87h-6.02v12.23q0 1.06.51 1.65.52.59 1.42.59.51 0 .85-.12t.59-.25q.26-.13.46-.25.19-.12.39-.12.24 0 .4.12.15.12.33.36l1.62 2.64q-1.18.99-2.72 1.5-1.54.5-3.19.5m13.13-14.23h10.25q0-1.06-.29-1.99-.3-.94-.9-1.64-.59-.71-1.5-1.11-.92-.41-2.13-.41-2.35 0-3.7 1.34-1.36 1.34-1.73 3.81m13.86 3.28h-13.97q.13 1.73.62 3 .48 1.26 1.27 2.09.79.82 1.88 1.23t2.41.41 2.28-.31 1.67-.68q.72-.38 1.26-.68.53-.31 1.04-.31.68 0 1.01.5l1.56 1.98q-.9 1.06-2.02 1.78-1.12.71-2.34 1.14t-2.49.6q-1.26.18-2.45.18-2.36 0-4.38-.78t-3.52-2.31-2.35-3.78q-.86-2.26-.86-5.23 0-2.31.75-4.34.74-2.04 2.14-3.55 1.4-1.5 3.41-2.38t4.54-.88q2.14 0 3.94.68 1.81.68 3.1 1.99 1.3 1.31 2.04 3.21t.74 4.35q0 1.23-.27 1.66-.26.43-1.01.43"/></svg>